<svg width="61" height="59" viewBox="0 0 61 59" fill="none" xmlns="http://www.w3.org/2000/svg">
<path d="M52 53.5L39.5 0L0.5 45.5C9 51.1667 25.8 59 27 59C28.2 59 43.5 55.8333 52 53.5Z" fill="#7300BF"/>
<path d="M12.5 51L10.5 12L53.5 30L45 53L12.5 51Z" fill="#BF00FF"/>
<path d="M0 24L4.5 42.5L60.5 51L37.5 9.5L0 24Z" fill="#A200FF"/>
<path d="M6.5 28.6L12.5274 47.5L17.4589 44.8L12.5274 30.625L15.2671 29.275L17 34.675L19 33.5L19.6507 27.925L21.8425 29.275V46.825H26.226V23.875L18.0068 21.175L6.5 28.6Z" fill="white"/>
<path d="M28.4178 23.875L27.8699 47.5L33.3493 44.8V26.575L36.089 25.9L36 31L38 31.975L39.9247 26.575L41.5685 27.925L37.7329 47.5H42.6644L46.5 25.9C44.3082 24.1 39.8151 20.5 39.3767 20.5C38.9384 20.5 31.8881 22.75 28.4178 23.875Z" fill="white"/>
</svg>
